# Vectary OBJ Export units=mm
mtllib Project Name.mtl
o 000_mesh0_mesh
g mesh0_mesh
usemtl Acrylic Glass_0918798d-593b-4355-8143-6b343629ea5f
v -3.274 40.000 21.651
v -15.774 40.000 0.000
v -15.774 57.321 0.000
v -3.274 57.321 21.651
vt 0.33878 0.59233
vt 0.15674 0.59233
vt 0.15674 0.84457
vt 0.33878 0.84457
vn 0.86603 0.00000 -0.50000
vn 0.86603 0.00000 -0.50000
vn 0.86603 0.00000 -0.50000
vn 0.86603 0.00000 -0.50000
vn 0.86603 0.00000 -0.50000
vn 0.86603 0.00000 -0.50000
f 1/1/1 2/2/2 3/3/3 
f 3/3/4 4/4/5 1/1/6 
o 001_mesh0_mesh
g mesh0_mesh
usemtl Acrylic Glass_0918798d-593b-4355-8143-6b343629ea5f
v -5.774 57.321 0.000
v 6.726 57.321 21.651
v -3.274 57.321 21.651
v -15.774 57.321 0.000
vt 0.30237 0.84457
vt 0.48441 0.84457
vt 0.33878 0.84457
vt 0.15674 0.84457
vn 0.00000 -1.00000 0.00000
vn 0.00000 -1.00000 0.00000
vn 0.00000 -1.00000 0.00000
vn 0.00000 -1.00000 0.00000
vn 0.00000 -1.00000 0.00000
vn 0.00000 -1.00000 0.00000
f 5/5/7 6/6/8 7/7/9 
f 7/7/10 8/8/11 5/5/12 
o 002_mesh0_mesh
g mesh0_mesh
usemtl Acrylic Glass_0918798d-593b-4355-8143-6b343629ea5f
v -3.274 40.000 21.651
v 6.726 57.321 21.651
v -5.774 57.321 0.000
v -15.774 40.000 0.000
vt 0.33878 0.59233
vt 0.48441 0.84457
vt 0.30237 0.84457
vt 0.15674 0.59233
vn -0.77460 0.44721 0.44721
vn -0.77460 0.44721 0.44721
vn -0.77460 0.44721 0.44721
vn -0.77460 0.44721 0.44721
vn -0.77460 0.44721 0.44721
vn -0.77460 0.44721 0.44721
f 9/9/13 10/10/14 11/11/15 
f 11/11/16 12/12/17 9/9/18 
o 003_mesh0_mesh
g mesh0_mesh
usemtl Acrylic Glass_0918798d-593b-4355-8143-6b343629ea5f
v 14.047 50.000 21.651
v 8.274 40.000 21.651
v 24.047 40.000 21.651
v -13.274 0.000 21.651
v -3.274 10.000 21.651
v -3.274 20.000 21.651
v -3.274 40.000 21.651
v 12.500 -0.000 21.651
v 6.726 10.000 21.651
v 41.368 50.000 21.651
v -13.274 67.321 21.651
v -3.274 57.321 21.651
v 6.726 57.321 21.651
v 24.047 67.321 21.651
vt 0.59102 0.73796
vt 0.50694 0.59233
vt 0.73665 0.59233
vt 0.19315 0.00980
vt 0.33878 0.15543
vt 0.33878 0.30106
vt 0.33878 0.59233
vt 0.56849 0.00980
vt 0.48441 0.15543
vt 0.98889 0.73796
vt 0.19315 0.99020
vt 0.33878 0.84457
vt 0.48441 0.84457
vt 0.73665 0.99020
vn 0.00000 0.00000 1.00000
vn 0.00000 0.00000 1.00000
vn 0.00000 0.00000 1.00000
vn 0.00000 0.00000 1.00000
vn 0.00000 0.00000 1.00000
vn 0.00000 0.00000 1.00000
vn 0.00000 0.00000 1.00000
vn 0.00000 0.00000 1.00000
vn 0.00000 0.00000 1.00000
vn 0.00000 0.00000 1.00000
vn 0.00000 0.00000 1.00000
vn 0.00000 0.00000 1.00000
vn 0.00000 0.00000 1.00000
vn 0.00000 0.00000 1.00000
vn 0.00000 0.00000 1.00000
vn 0.00000 0.00000 1.00000
vn 0.00000 0.00000 1.00000
vn 0.00000 0.00000 1.00000
vn 0.00000 0.00000 1.00000
vn 0.00000 0.00000 1.00000
vn 0.00000 0.00000 1.00000
vn 0.00000 0.00000 1.00000
vn 0.00000 0.00000 1.00000
vn 0.00000 0.00000 1.00000
vn 0.00000 0.00000 1.00000
vn 0.00000 0.00000 1.00000
vn 0.00000 0.00000 1.00000
vn 0.00000 0.00000 1.00000
vn 0.00000 0.00000 1.00000
vn 0.00000 0.00000 1.00000
vn 0.00000 0.00000 1.00000
vn 0.00000 0.00000 1.00000
vn 0.00000 0.00000 1.00000
vn 0.00000 0.00000 1.00000
vn 0.00000 0.00000 1.00000
vn 0.00000 0.00000 1.00000
vn 0.00000 0.00000 1.00000
vn 0.00000 0.00000 1.00000
vn 0.00000 0.00000 1.00000
vn 0.00000 0.00000 1.00000
vn 0.00000 0.00000 1.00000
vn 0.00000 0.00000 1.00000
vn 0.00000 0.00000 1.00000
vn 0.00000 0.00000 1.00000
vn 0.00000 0.00000 1.00000
vn 0.00000 0.00000 1.00000
vn 0.00000 0.00000 1.00000
vn 0.00000 0.00000 1.00000
f 13/13/19 14/14/20 15/15/21 
f 16/16/22 17/17/23 18/18/24 
f 13/13/25 19/19/26 14/14/27 
f 18/18/28 19/19/29 16/16/30 
f 20/20/31 21/21/32 17/17/33 
f 20/20/34 22/22/35 15/15/36 
f 18/18/37 14/14/38 19/19/39 
f 15/15/40 21/21/41 20/20/42 
f 23/23/43 24/24/44 25/25/45 
f 23/23/46 16/16/47 19/19/48 
f 25/25/49 19/19/50 13/13/51 
f 17/17/52 16/16/53 20/20/54 
f 19/19/55 24/24/56 23/23/57 
f 15/15/58 22/22/59 13/13/60 
f 13/13/61 26/26/62 25/25/63 
f 25/25/64 26/26/65 23/23/66 
o 004_mesh0_mesh
g mesh0_mesh
usemtl Acrylic Glass_0918798d-593b-4355-8143-6b343629ea5f
v -25.774 67.321 0.000
v -15.774 57.321 0.000
v -15.774 40.000 0.000
v -15.774 20.000 0.000
v 11.547 67.321 0.000
v -5.774 57.321 0.000
v 1.547 50.000 0.000
v 28.868 50.000 0.000
v 11.547 40.000 0.000
v -0.000 -0.000 0.000
v -5.774 10.000 0.000
v -25.774 0.000 0.000
v -15.774 10.000 0.000
v -4.226 40.000 0.000
vt 0.01111 0.99020
vt 0.15674 0.84457
vt 0.15674 0.59233
vt 0.15674 0.30106
vt 0.55461 0.99020
vt 0.30237 0.84457
vt 0.40898 0.73796
vt 0.80685 0.73796
vt 0.55461 0.59233
vt 0.38645 0.00980
vt 0.30237 0.15543
vt 0.01111 0.00980
vt 0.15674 0.15543
vt 0.32490 0.59233
vn 0.00000 0.00000 -1.00000
vn 0.00000 0.00000 -1.00000
vn 0.00000 0.00000 -1.00000
vn 0.00000 0.00000 -1.00000
vn 0.00000 0.00000 -1.00000
vn 0.00000 0.00000 -1.00000
vn 0.00000 0.00000 -1.00000
vn 0.00000 0.00000 -1.00000
vn 0.00000 0.00000 -1.00000
vn 0.00000 0.00000 -1.00000
vn 0.00000 0.00000 -1.00000
vn 0.00000 0.00000 -1.00000
vn 0.00000 0.00000 -1.00000
vn 0.00000 0.00000 -1.00000
vn 0.00000 0.00000 -1.00000
vn 0.00000 0.00000 -1.00000
vn 0.00000 0.00000 -1.00000
vn 0.00000 0.00000 -1.00000
vn 0.00000 0.00000 -1.00000
vn 0.00000 0.00000 -1.00000
vn 0.00000 0.00000 -1.00000
vn 0.00000 0.00000 -1.00000
vn 0.00000 0.00000 -1.00000
vn 0.00000 0.00000 -1.00000
vn 0.00000 0.00000 -1.00000
vn 0.00000 0.00000 -1.00000
vn 0.00000 0.00000 -1.00000
vn 0.00000 0.00000 -1.00000
vn 0.00000 0.00000 -1.00000
vn 0.00000 0.00000 -1.00000
vn 0.00000 0.00000 -1.00000
vn 0.00000 0.00000 -1.00000
vn 0.00000 0.00000 -1.00000
vn 0.00000 0.00000 -1.00000
vn 0.00000 0.00000 -1.00000
vn 0.00000 0.00000 -1.00000
vn 0.00000 0.00000 -1.00000
vn 0.00000 0.00000 -1.00000
vn 0.00000 0.00000 -1.00000
vn 0.00000 0.00000 -1.00000
vn 0.00000 0.00000 -1.00000
vn 0.00000 0.00000 -1.00000
vn 0.00000 0.00000 -1.00000
vn 0.00000 0.00000 -1.00000
vn 0.00000 0.00000 -1.00000
vn 0.00000 0.00000 -1.00000
vn 0.00000 0.00000 -1.00000
vn 0.00000 0.00000 -1.00000
f 27/27/67 28/28/68 29/29/69 
f 29/29/70 30/30/71 27/27/72 
f 27/27/73 31/31/74 32/32/75 
f 33/33/76 34/34/77 35/35/78 
f 32/32/79 28/28/80 27/27/81 
f 32/32/82 31/31/83 33/33/84 
f 36/36/85 37/37/86 35/35/87 
f 36/36/88 38/38/89 39/39/90 
f 35/35/91 40/40/92 33/33/93 
f 33/33/94 29/29/95 32/32/96 
f 39/39/97 37/37/98 36/36/99 
f 38/38/100 27/27/101 30/30/102 
f 29/29/103 40/40/104 30/30/105 
f 30/30/106 39/39/107 38/38/108 
f 35/35/109 34/34/110 36/36/111 
f 40/40/112 29/29/113 33/33/114 
o 005_mesh0_mesh
g mesh0_mesh
usemtl Acrylic Glass_0918798d-593b-4355-8143-6b343629ea5f
v -13.274 0.000 21.651
v -25.774 0.000 0.000
v -0.000 -0.000 0.000
v 12.500 -0.000 21.651
vt 0.19315 0.00980
vt 0.01111 0.00980
vt 0.38645 0.00980
vt 0.56849 0.00980
vn 0.00000 -1.00000 0.00000
vn 0.00000 -1.00000 0.00000
vn 0.00000 -1.00000 0.00000
vn 0.00000 -1.00000 0.00000
vn 0.00000 -1.00000 0.00000
vn 0.00000 -1.00000 0.00000
f 41/41/115 42/42/116 43/43/117 
f 43/43/118 44/44/119 41/41/120 
o 006_mesh0_mesh
g mesh0_mesh
usemtl Acrylic Glass_0918798d-593b-4355-8143-6b343629ea5f
v 12.500 -0.000 21.651
v -0.000 -0.000 0.000
v 28.868 50.000 0.000
v 41.368 50.000 21.651
vt 0.56849 0.00980
vt 0.38645 0.00980
vt 0.80685 0.73796
vt 0.98889 0.73796
vn 0.77460 -0.44721 -0.44721
vn 0.77460 -0.44721 -0.44721
vn 0.77460 -0.44721 -0.44721
vn 0.77460 -0.44721 -0.44721
vn 0.77460 -0.44721 -0.44721
vn 0.77460 -0.44721 -0.44721
f 45/45/121 46/46/122 47/47/123 
f 47/47/124 48/48/125 45/45/126 
o 007_mesh0_mesh
g mesh0_mesh
usemtl Acrylic Glass_0918798d-593b-4355-8143-6b343629ea5f
v 14.047 50.000 21.651
v 41.368 50.000 21.651
v 28.868 50.000 0.000
v 1.547 50.000 0.000
vt 0.59102 0.73796
vt 0.98889 0.73796
vt 0.80685 0.73796
vt 0.40898 0.73796
vn 0.00000 1.00000 0.00000
vn 0.00000 1.00000 0.00000
vn 0.00000 1.00000 0.00000
vn 0.00000 1.00000 0.00000
vn 0.00000 1.00000 0.00000
vn 0.00000 1.00000 0.00000
f 49/49/127 50/50/128 51/51/129 
f 51/51/130 52/52/131 49/49/132 
o 008_mesh0_mesh
g mesh0_mesh
usemtl Acrylic Glass_0918798d-593b-4355-8143-6b343629ea5f
v 14.047 50.000 21.651
v 1.547 50.000 0.000
v 11.547 67.321 0.000
v 24.047 67.321 21.651
vt 0.59102 0.73796
vt 0.40898 0.73796
vt 0.55461 0.99020
vt 0.73665 0.99020
vn 0.77460 -0.44721 -0.44721
vn 0.77460 -0.44721 -0.44721
vn 0.77460 -0.44721 -0.44721
vn 0.77460 -0.44721 -0.44721
vn 0.77460 -0.44721 -0.44721
vn 0.77460 -0.44721 -0.44721
f 53/53/133 54/54/134 55/55/135 
f 55/55/136 56/56/137 53/53/138 
o 009_mesh0_mesh
g mesh0_mesh
usemtl Acrylic Glass_0918798d-593b-4355-8143-6b343629ea5f
v 11.547 67.321 0.000
v -25.774 67.321 0.000
v -13.274 67.321 21.651
v 24.047 67.321 21.651
vt 0.55461 0.99020
vt 0.01111 0.99020
vt 0.19315 0.99020
vt 0.73665 0.99020
vn 0.00000 1.00000 0.00000
vn 0.00000 1.00000 0.00000
vn 0.00000 1.00000 0.00000
vn 0.00000 1.00000 0.00000
vn 0.00000 1.00000 0.00000
vn 0.00000 1.00000 0.00000
f 57/57/139 58/58/140 59/59/141 
f 59/59/142 60/60/143 57/57/144 
o 010_mesh0_mesh
g mesh0_mesh
usemtl Acrylic Glass_0918798d-593b-4355-8143-6b343629ea5f
v -5.774 10.000 0.000
v -15.774 10.000 0.000
v -3.274 10.000 21.651
v 6.726 10.000 21.651
vt 0.30237 0.15543
vt 0.15674 0.15543
vt 0.33878 0.15543
vt 0.48441 0.15543
vn 0.00000 1.00000 0.00000
vn 0.00000 1.00000 0.00000
vn 0.00000 1.00000 0.00000
vn 0.00000 1.00000 0.00000
vn 0.00000 1.00000 0.00000
vn 0.00000 1.00000 0.00000
f 61/61/145 62/62/146 63/63/147 
f 63/63/148 64/64/149 61/61/150 
o 011_mesh0_mesh
g mesh0_mesh
usemtl Acrylic Glass_0918798d-593b-4355-8143-6b343629ea5f
v -3.274 10.000 21.651
v -15.774 10.000 0.000
v -15.774 20.000 0.000
v -3.274 20.000 21.651
vt 0.33878 0.15543
vt 0.15674 0.15543
vt 0.15674 0.30106
vt 0.33878 0.30106
vn 0.86603 0.00000 -0.50000
vn 0.86603 0.00000 -0.50000
vn 0.86603 0.00000 -0.50000
vn 0.86603 0.00000 -0.50000
vn 0.86603 0.00000 -0.50000
vn 0.86603 0.00000 -0.50000
f 65/65/151 66/66/152 67/67/153 
f 67/67/154 68/68/155 65/65/156 
o 012_mesh0_mesh
g mesh0_mesh
usemtl Acrylic Glass_0918798d-593b-4355-8143-6b343629ea5f
v -3.274 20.000 21.651
v -15.774 20.000 0.000
v -4.226 40.000 0.000
v 8.274 40.000 21.651
vt 0.33878 0.30106
vt 0.15674 0.30106
vt 0.32490 0.59233
vt 0.50694 0.59233
vn 0.77460 -0.44721 -0.44721
vn 0.77460 -0.44721 -0.44721
vn 0.77460 -0.44721 -0.44721
vn 0.77460 -0.44721 -0.44721
vn 0.77460 -0.44721 -0.44721
vn 0.77460 -0.44721 -0.44721
f 69/69/157 70/70/158 71/71/159 
f 71/71/160 72/72/161 69/69/162 
o 013_mesh0_mesh
g mesh0_mesh
usemtl Acrylic Glass_0918798d-593b-4355-8143-6b343629ea5f
v 11.547 40.000 0.000
v 24.047 40.000 21.651
v 8.274 40.000 21.651
v -4.226 40.000 0.000
vt 0.55461 0.59233
vt 0.73665 0.59233
vt 0.50694 0.59233
vt 0.32490 0.59233
vn 0.00000 -1.00000 0.00000
vn 0.00000 -1.00000 0.00000
vn 0.00000 -1.00000 0.00000
vn 0.00000 -1.00000 0.00000
vn 0.00000 -1.00000 0.00000
vn 0.00000 -1.00000 0.00000
f 73/73/163 74/74/164 75/75/165 
f 75/75/166 76/76/167 73/73/168 
o 014_mesh0_mesh
g mesh0_mesh
usemtl Acrylic Glass_0918798d-593b-4355-8143-6b343629ea5f
v -13.274 67.321 21.651
v -25.774 67.321 0.000
v -25.774 0.000 0.000
v -13.274 0.000 21.651
vt 0.19315 0.99020
vt 0.01111 0.99020
vt 0.01111 0.00980
vt 0.19315 0.00980
vn -0.86603 0.00000 0.50000
vn -0.86603 0.00000 0.50000
vn -0.86603 0.00000 0.50000
vn -0.86603 0.00000 0.50000
vn -0.86603 0.00000 0.50000
vn -0.86603 0.00000 0.50000
f 77/77/169 78/78/170 79/79/171 
f 79/79/172 80/80/173 77/77/174 
o 015_mesh0_mesh
g mesh0_mesh
usemtl Acrylic Glass_0918798d-593b-4355-8143-6b343629ea5f
v 11.547 40.000 0.000
v -5.774 10.000 0.000
v 6.726 10.000 21.651
v 24.047 40.000 21.651
vt 0.55461 0.59233
vt 0.30237 0.15543
vt 0.48441 0.15543
vt 0.73665 0.59233
vn -0.77460 0.44721 0.44721
vn -0.77460 0.44721 0.44721
vn -0.77460 0.44721 0.44721
vn -0.77460 0.44721 0.44721
vn -0.77460 0.44721 0.44721
vn -0.77460 0.44721 0.44721
f 81/81/175 82/82/176 83/83/177 
f 83/83/178 84/84/179 81/81/180 
