<svg id="visual" viewBox="0 0 900 600" width="900" height="600" xmlns="http://www.w3.org/2000/svg" xmlns:xlink="http://www.w3.org/1999/xlink" version="1.1"><g stroke-width="1" stroke-linejoin="bevel"><path d="M423 322L438 419L493 333Z" fill="#121525" stroke="#121525"></path><path d="M438 419L513 381L493 333Z" fill="#0f141c" stroke="#0f141c"></path><path d="M469 500L566 396L513 381Z" fill="#121525" stroke="#121525"></path><path d="M513 381L566 396L493 333Z" fill="#111523" stroke="#111523"></path><path d="M438 419L469 500L513 381Z" fill="#0f141a" stroke="#0f141a"></path><path d="M516 201L388 238L423 322Z" fill="#0f151e" stroke="#0f151e"></path><path d="M423 322L296 439L438 419Z" fill="#131526" stroke="#131526"></path><path d="M516 201L423 322L493 333Z" fill="#121525" stroke="#121525"></path><path d="M388 238L324 267L423 322Z" fill="#0f141a" stroke="#0f141a"></path><path d="M438 419L438 532L469 500Z" fill="#101520" stroke="#101520"></path><path d="M318 499L438 532L438 419Z" fill="#0f141a" stroke="#0f141a"></path><path d="M324 267L296 439L423 322Z" fill="#111524" stroke="#111524"></path><path d="M566 396L618 315L493 333Z" fill="#101520" stroke="#101520"></path><path d="M618 315L516 201L493 333Z" fill="#0f141a" stroke="#0f141a"></path><path d="M296 439L318 499L438 419Z" fill="#111523" stroke="#111523"></path><path d="M509 600L589 535L469 500Z" fill="#0f141c" stroke="#0f141c"></path><path d="M469 500L589 535L566 396Z" fill="#111523" stroke="#111523"></path><path d="M566 396L694 430L618 315Z" fill="#131526" stroke="#131526"></path><path d="M618 315L628 232L516 201Z" fill="#0f141a" stroke="#0f141a"></path><path d="M437 63L320 174L388 238Z" fill="#0f151e" stroke="#0f151e"></path><path d="M388 238L320 174L324 267Z" fill="#0f141a" stroke="#0f141a"></path><path d="M161 272L172 429L296 439Z" fill="#131526" stroke="#131526"></path><path d="M318 499L407 600L438 532Z" fill="#101520" stroke="#101520"></path><path d="M438 532L509 600L469 500Z" fill="#111523" stroke="#111523"></path><path d="M407 600L509 600L438 532Z" fill="#101520" stroke="#101520"></path><path d="M589 535L694 430L566 396Z" fill="#131526" stroke="#131526"></path><path d="M618 315L698 294L628 232Z" fill="#0f141c" stroke="#0f141c"></path><path d="M694 430L698 294L618 315Z" fill="#0f141a" stroke="#0f141a"></path><path d="M509 600L576 600L589 535Z" fill="#101520" stroke="#101520"></path><path d="M589 535L699 525L694 430Z" fill="#131526" stroke="#131526"></path><path d="M595 107L533 98L516 201Z" fill="#10151f" stroke="#10151f"></path><path d="M516 201L437 63L388 238Z" fill="#111524" stroke="#111524"></path><path d="M595 107L516 201L628 232Z" fill="#111523" stroke="#111523"></path><path d="M161 272L296 439L324 267Z" fill="#0f151e" stroke="#0f151e"></path><path d="M296 439L185 527L318 499Z" fill="#0f141b" stroke="#0f141b"></path><path d="M318 499L283 600L407 600Z" fill="#131526" stroke="#131526"></path><path d="M185 527L283 600L318 499Z" fill="#131526" stroke="#131526"></path><path d="M320 174L204 219L324 267Z" fill="#111523" stroke="#111523"></path><path d="M711 600L699 525L589 535Z" fill="#131526" stroke="#131526"></path><path d="M834 338L726 211L698 294Z" fill="#10151f" stroke="#10151f"></path><path d="M686 90L595 107L628 232Z" fill="#101520" stroke="#101520"></path><path d="M421 0L437 63L534 0Z" fill="#121525" stroke="#121525"></path><path d="M533 98L437 63L516 201Z" fill="#0f141b" stroke="#0f141b"></path><path d="M320 174L234 99L204 219Z" fill="#131526" stroke="#131526"></path><path d="M204 219L161 272L324 267Z" fill="#111523" stroke="#111523"></path><path d="M172 429L185 527L296 439Z" fill="#101521" stroke="#101521"></path><path d="M698 294L726 211L628 232Z" fill="#0f151e" stroke="#0f151e"></path><path d="M783 407L698 294L694 430Z" fill="#0f151e" stroke="#0f151e"></path><path d="M437 63L313 70L320 174Z" fill="#10151f" stroke="#10151f"></path><path d="M79 178L120 304L161 272Z" fill="#101520" stroke="#101520"></path><path d="M810 512L783 407L694 430Z" fill="#111523" stroke="#111523"></path><path d="M79 178L161 272L204 219Z" fill="#111524" stroke="#111524"></path><path d="M161 272L120 304L172 429Z" fill="#0f141c" stroke="#0f141c"></path><path d="M172 429L64 518L185 527Z" fill="#111523" stroke="#111523"></path><path d="M313 70L234 99L320 174Z" fill="#101521" stroke="#101521"></path><path d="M576 600L711 600L589 535Z" fill="#101521" stroke="#101521"></path><path d="M699 525L810 512L694 430Z" fill="#0f151e" stroke="#0f151e"></path><path d="M185 527L185 600L283 600Z" fill="#101520" stroke="#101520"></path><path d="M116 600L185 600L185 527Z" fill="#10151f" stroke="#10151f"></path><path d="M726 211L686 90L628 232Z" fill="#0f141c" stroke="#0f141c"></path><path d="M534 0L437 63L533 98Z" fill="#121525" stroke="#121525"></path><path d="M534 0L533 98L583 0Z" fill="#0f141c" stroke="#0f141c"></path><path d="M437 63L421 0L313 70Z" fill="#121525" stroke="#121525"></path><path d="M313 70L287 0L234 99Z" fill="#121525" stroke="#121525"></path><path d="M583 0L533 98L595 107Z" fill="#101521" stroke="#101521"></path><path d="M900 427L834 338L783 407Z" fill="#111524" stroke="#111524"></path><path d="M783 407L834 338L698 294Z" fill="#0f141b" stroke="#0f141b"></path><path d="M726 211L835 164L686 90Z" fill="#101520" stroke="#101520"></path><path d="M794 600L810 512L699 525Z" fill="#131526" stroke="#131526"></path><path d="M669 0L583 0L595 107Z" fill="#121525" stroke="#121525"></path><path d="M120 304L63 427L172 429Z" fill="#0f141b" stroke="#0f141b"></path><path d="M421 0L287 0L313 70Z" fill="#131526" stroke="#131526"></path><path d="M109 82L79 178L204 219Z" fill="#101521" stroke="#101521"></path><path d="M64 518L116 600L185 527Z" fill="#101520" stroke="#101520"></path><path d="M711 600L794 600L699 525Z" fill="#0f151e" stroke="#0f151e"></path><path d="M63 427L64 518L172 429Z" fill="#101520" stroke="#101520"></path><path d="M109 82L204 219L234 99Z" fill="#111524" stroke="#111524"></path><path d="M120 304L0 394L63 427Z" fill="#0f141b" stroke="#0f141b"></path><path d="M812 0L669 0L686 90Z" fill="#101520" stroke="#101520"></path><path d="M686 90L669 0L595 107Z" fill="#101521" stroke="#101521"></path><path d="M834 338L835 164L726 211Z" fill="#101521" stroke="#101521"></path><path d="M192 0L109 82L234 99Z" fill="#101520" stroke="#101520"></path><path d="M287 0L192 0L234 99Z" fill="#111523" stroke="#111523"></path><path d="M810 512L900 427L783 407Z" fill="#111524" stroke="#111524"></path><path d="M834 338L900 234L835 164Z" fill="#121525" stroke="#121525"></path><path d="M900 534L900 427L810 512Z" fill="#10151f" stroke="#10151f"></path><path d="M900 427L900 306L834 338Z" fill="#131526" stroke="#131526"></path><path d="M0 299L0 394L120 304Z" fill="#0f151e" stroke="#0f151e"></path><path d="M63 427L0 520L64 518Z" fill="#111524" stroke="#111524"></path><path d="M0 299L120 304L79 178Z" fill="#0f141c" stroke="#0f141c"></path><path d="M0 199L0 299L79 178Z" fill="#0f141a" stroke="#0f141a"></path><path d="M900 306L900 234L834 338Z" fill="#131526" stroke="#131526"></path><path d="M900 131L834 92L835 164Z" fill="#0f141a" stroke="#0f141a"></path><path d="M835 164L834 92L686 90Z" fill="#111523" stroke="#111523"></path><path d="M0 394L0 520L63 427Z" fill="#111523" stroke="#111523"></path><path d="M64 518L0 600L116 600Z" fill="#121525" stroke="#121525"></path><path d="M794 600L900 534L810 512Z" fill="#121525" stroke="#121525"></path><path d="M0 91L0 199L79 178Z" fill="#101520" stroke="#101520"></path><path d="M192 0L129 0L109 82Z" fill="#0f141c" stroke="#0f141c"></path><path d="M109 82L0 91L79 178Z" fill="#111524" stroke="#111524"></path><path d="M794 600L900 600L900 534Z" fill="#101521" stroke="#101521"></path><path d="M900 234L900 131L835 164Z" fill="#0f141c" stroke="#0f141c"></path><path d="M0 520L0 600L64 518Z" fill="#111524" stroke="#111524"></path><path d="M900 0L812 0L834 92Z" fill="#101520" stroke="#101520"></path><path d="M834 92L812 0L686 90Z" fill="#101520" stroke="#101520"></path><path d="M0 0L0 91L109 82Z" fill="#10151f" stroke="#10151f"></path><path d="M900 131L900 0L834 92Z" fill="#10151f" stroke="#10151f"></path><path d="M129 0L0 0L109 82Z" fill="#101520" stroke="#101520"></path></g></svg>